<mxfile host="app.diagrams.net" modified="2024-04-06T04:14:35.095Z" agent="Mozilla/5.0 (Macintosh; Intel Mac OS X 10_15_7) AppleWebKit/537.36 (KHTML, like Gecko) Chrome/120.0.0.0 Safari/537.36" etag="IEjObF-vNrXxnG9P32IN" version="23.1.8" type="github">
  <diagram name="hcdc" id="2WBbcjo3YpvNjUJUfVW6">
    <mxGraphModel dx="1194" dy="756" grid="1" gridSize="10" guides="1" tooltips="1" connect="1" arrows="1" fold="1" page="1" pageScale="1" pageWidth="850" pageHeight="1100" math="0" shadow="0">
      <root>
        <mxCell id="0" />
        <mxCell id="1" parent="0" />
      </root>
    </mxGraphModel>
  </diagram>
</mxfile>
